HIERARCHY
ROOT Hips
{
	OFFSET -0.001795 -0.223333 0.028219
	CHANNELS 6 Xposition Yposition Zposition Zrotation Yrotation Xrotation 
	JOINT LeftUpLeg
	{
		OFFSET 0.069520 -0.091406 -0.006815
		CHANNELS 3 Zrotation Yrotation Xrotation
		JOINT LeftLeg
		{
			OFFSET 0.034277 -0.375199 -0.004496
			CHANNELS 3 Zrotation Yrotation Xrotation
			JOINT LeftFoot
			{
				OFFSET -0.013596 -0.397961 -0.043693
				CHANNELS 3 Zrotation Yrotation Xrotation
				JOINT LeftToe
				{
					OFFSET 0.026358 -0.055791 0.119288
					CHANNELS 3 Zrotation Yrotation Xrotation
					End Site
					{
						OFFSET 0.000000 0.000000 0.000000
					}
				}
			}
		}
	}
	JOINT RightUpLeg
	{
		OFFSET -0.067670 -0.090522 -0.004320
		CHANNELS 3 Zrotation Yrotation Xrotation
		JOINT RightLeg
		{
			OFFSET -0.038290 -0.382569 -0.008850
			CHANNELS 3 Zrotation Yrotation Xrotation
			JOINT RightFoot
			{
				OFFSET 0.015774 -0.398415 -0.042312
				CHANNELS 3 Zrotation Yrotation Xrotation
				JOINT RightToe
				{
					OFFSET -0.025372 -0.048144 0.123348
					CHANNELS 3 Zrotation Yrotation Xrotation
					End Site
					{
						OFFSET 0.000000 0.000000 0.000000
					}
				}
			}
		}
	}
	JOINT Spine
	{
		OFFSET -0.002533 0.108963 -0.026696
		CHANNELS 3 Zrotation Yrotation Xrotation
		JOINT Spine1
		{
			OFFSET 0.005487 0.135180 0.001092
			CHANNELS 3 Zrotation Yrotation Xrotation
			JOINT Spine2
			{
				OFFSET 0.001457 0.052922 0.025425
				CHANNELS 3 Zrotation Yrotation Xrotation
				JOINT Neck
				{
					OFFSET -0.002778 0.213870 -0.042857
					CHANNELS 3 Zrotation Yrotation Xrotation
					JOINT Head
					{
						OFFSET 0.005152 0.064970 0.051349
						CHANNELS 3 Zrotation Yrotation Xrotation
						End Site
						{
							OFFSET 0.000000 0.000000 0.000000
						}
					}
				}
				JOINT LeftShoulder
				{
					OFFSET 0.078845 0.121749 -0.034090
					CHANNELS 3 Zrotation Yrotation Xrotation
					JOINT LeftArm
					{
						OFFSET 0.090977 0.030469 -0.008868
						CHANNELS 3 Zrotation Yrotation Xrotation
						JOINT LeftForeArm
						{
							OFFSET 0.259612 -0.012772 -0.027456
							CHANNELS 3 Zrotation Yrotation Xrotation
							JOINT LeftHand
							{
								OFFSET 0.249234 0.008986 -0.001171
								CHANNELS 3 Zrotation Yrotation Xrotation
								End Site
								{
									OFFSET 0.000000 0.000000 0.000000
								}
							}
						}
					}
				}
				JOINT RightShoulder
				{
					OFFSET -0.081759 0.118833 -0.038615
					CHANNELS 3 Zrotation Yrotation Xrotation
					JOINT RightArm
					{
						OFFSET -0.096012 0.032551 -0.009143
						CHANNELS 3 Zrotation Yrotation Xrotation
						JOINT RightForeArm
						{
							OFFSET -0.253742 -0.013329 -0.021401
							CHANNELS 3 Zrotation Yrotation Xrotation
							JOINT RightHand
							{
								OFFSET -0.255298 0.007772 -0.005559
								CHANNELS 3 Zrotation Yrotation Xrotation
								End Site
								{
									OFFSET 0.000000 0.000000 0.000000
								}
							}
						}
					}
				}
			}
		}
	}
}
MOTION
Frames: 7
Frame Time: 0.050000
0.000000 0.978107 0.000000 -0.711582 0.511609 0.956455 0.248636 0.264525 3.034919 -0.414130 0.140494 -3.148752 2.509471 9.271052 14.166080 0.000000 0.000000 0.000000 0.734488 -0.308670 2.704518 0.133828 -0.132007 -3.069259 -2.461754 -9.917158 13.514740 0.000000 0.000000 0.000000 1.987323 -0.261842 4.096317 0.058867 0.686800 -27.761978 -1.469846 1.014499 31.718943 3.231082 -0.742255 -20.128495 0.000000 0.000000 0.000000 8.507469 7.344926 -1.776065 -2.809576 -10.943432 -0.933400 2.584261 -5.393308 0.058903 0.000000 0.000000 0.000000 -11.404598 -8.605051 -2.152890 6.242152 8.223084 -1.026958 1.041352 7.809533 0.260944 0.000000 0.000000 0.000000 
0.000011 0.977895 -0.000255 -0.338421 0.078398 0.323864 -0.387542 0.432751 4.519810 -0.424821 0.170625 -4.099407 2.564588 9.273450 14.012485 0.000000 0.000000 0.000000 0.897683 -0.381189 3.320849 -0.441328 -0.114701 -3.722741 -2.742297 -10.403851 13.112238 0.000000 0.000000 0.000000 2.020811 -0.289926 4.639776 0.540616 0.580858 -27.607961 -1.470738 1.359507 31.906390 3.128683 -0.746069 -19.213992 0.000000 0.000000 0.000000 9.131407 6.133285 -1.375109 -2.637178 -9.667394 -0.850382 1.180517 -4.320777 0.095068 0.000000 0.000000 0.000000 -13.399025 -9.042796 -2.120568 7.056678 9.221140 -1.089694 0.728827 7.236090 0.230562 0.000000 0.000000 0.000000 
-0.000041 0.979259 -0.000260 -0.305494 0.635867 0.588066 0.358990 0.345488 4.012663 -0.915829 0.206468 -4.149970 1.822291 8.357120 14.703106 0.000000 0.000000 0.000000 0.831416 -0.354825 3.094906 -0.203443 -0.130206 -3.677165 -2.662336 -10.189030 13.118167 0.000000 0.000000 0.000000 1.937906 -0.257062 4.108984 0.329343 0.619759 -27.188627 -1.436334 0.646774 31.746190 2.628390 -0.420510 -19.685358 0.000000 0.000000 0.000000 10.106326 5.297135 -1.105015 -4.575265 -9.290850 -0.990537 3.496117 -3.722404 0.025104 0.000000 0.000000 0.000000 -13.091260 -8.172009 -1.889715 7.105727 8.955056 -1.098256 -3.391604 7.346503 0.070073 0.000000 0.000000 0.000000 
-0.000071 0.978974 -0.000240 -0.642005 0.426900 0.255980 0.114327 0.412066 4.612720 -0.710565 0.214285 -4.954493 2.098772 8.867665 15.178342 0.000000 0.000000 0.000000 1.347680 -0.467827 3.869701 -0.079497 -0.168806 -4.405177 -2.903774 -10.977087 14.797684 0.000000 0.000000 0.000000 2.512474 -0.365883 5.444970 -0.074553 0.733803 -28.609074 -1.277466 1.280304 32.025811 2.670395 -0.316532 -20.199072 0.000000 0.000000 0.000000 10.814311 5.516271 -1.066802 -3.924543 -10.244326 -0.973148 3.273985 -3.358313 0.027005 0.000000 0.000000 0.000000 -13.732291 -8.842836 -2.102007 7.179428 8.362505 -1.109562 -2.581040 7.670605 0.110046 0.000000 0.000000 0.000000 
-0.000087 0.978038 -0.000345 -0.759775 0.797480 0.544002 0.244885 0.405767 4.651429 -0.754612 0.232816 -5.582723 2.195566 9.052775 15.156699 0.000000 0.000000 0.000000 1.474669 -0.430369 3.463439 -0.526792 -0.146547 -4.591331 -2.648409 -10.487399 14.864635 0.000000 0.000000 0.000000 2.583741 -0.354395 5.148774 -0.110564 0.731233 -28.114333 -1.548742 1.312383 31.361896 3.078948 -0.575443 -19.736442 0.000000 0.000000 0.000000 12.230389 4.870556 -0.736956 -5.134948 -9.696491 -1.031393 3.272577 -2.999638 0.025573 0.000000 0.000000 0.000000 -13.990670 -8.497941 -2.011373 7.502891 7.826344 -1.116420 -2.441016 7.913267 0.121199 0.000000 0.000000 0.000000 
-0.000065 0.977132 -0.000378 -0.661578 1.170928 0.364962 -0.046582 0.438807 4.862042 -0.558901 0.216772 -5.455610 2.215170 9.051807 14.828164 0.000000 0.000000 0.000000 1.703611 -0.482116 3.802623 -0.757256 -0.136534 -4.713879 -2.760726 -10.664159 15.010828 0.000000 0.000000 0.000000 2.463270 -0.394614 5.903337 0.042417 0.705681 -28.267100 -1.678522 1.019048 31.066359 3.000666 -0.531160 -19.752593 0.000000 0.000000 0.000000 12.360630 5.529770 -0.885541 -4.984725 -9.669615 -1.016746 3.157979 -3.341142 0.029660 0.000000 0.000000 0.000000 -14.653372 -8.549343 -1.960910 7.701144 7.294922 -1.123659 -2.608249 8.142840 0.115807 0.000000 0.000000 0.000000 
-0.000086 0.977338 -0.000421 -0.668892 1.336735 0.164837 0.070059 0.422490 4.765800 -0.606451 0.205712 -4.964290 2.031109 8.811406 14.897683 0.000000 0.000000 0.000000 1.754880 -0.486599 3.821450 -0.804401 -0.115431 -4.339042 -2.745214 -10.576656 14.808386 0.000000 0.000000 0.000000 2.435330 -0.409891 6.193760 0.182461 0.681341 -28.272257 -1.763591 0.944755 30.884401 3.159028 -0.675697 -19.335604 0.000000 0.000000 0.000000 12.052482 5.625445 -0.919769 -5.025458 -9.833196 -1.021187 3.359337 -3.193555 0.024452 0.000000 0.000000 0.000000 -14.549110 -8.574223 -1.971056 7.482931 7.041807 -1.101577 -2.060569 8.599465 0.145826 0.000000 0.000000 0.000000 
